<svg xmlns="http://www.w3.org/2000/svg" xmlns:xlink="http://www.w3.org/1999/xlink" width="163" height="30" viewBox="0 0 163 30">
  <defs>
    <clipPath id="clip-path">
      <path id="path18" d="M3.082-324.722A17.1,17.1,0,0,0,.2-325.479a15.068,15.068,0,0,0,1.627,4.532,15.061,15.061,0,0,0,10.893,7.609C12.559-317.991,8.788-322.676,3.082-324.722Zm.544-4.719a15.349,15.349,0,0,0,14.031-13.664,15.024,15.024,0,0,0-9.921,1.651A15.075,15.075,0,0,0,0-329.546,15.728,15.728,0,0,0,3.625-329.441Zm11.426,4.677a17.157,17.157,0,0,0,3.481,11.2,15.094,15.094,0,0,0,3.8-1.472,15.091,15.091,0,0,0,5.907-20.508,15.061,15.061,0,0,0-3.253-4.045A17.225,17.225,0,0,0,15.051-324.764Z" transform="translate(0 343.338)" fill="#fff"/>
    </clipPath>
  </defs>
  <g id="g10" transform="translate(0 343.338)">
    <g id="g12" transform="translate(0 -343.338)">
      <g id="g14">
        <g id="g16" clip-path="url(#clip-path)">
          <path id="path28" d="M3.082-324.722A17.1,17.1,0,0,0,.2-325.479a15.068,15.068,0,0,0,1.627,4.532,15.061,15.061,0,0,0,10.893,7.609C12.559-317.991,8.788-322.676,3.082-324.722Zm.544-4.719a15.349,15.349,0,0,0,14.031-13.664,15.024,15.024,0,0,0-9.921,1.651A15.075,15.075,0,0,0,0-329.546,15.728,15.728,0,0,0,3.625-329.441Zm11.426,4.677a17.157,17.157,0,0,0,3.481,11.2,15.094,15.094,0,0,0,3.8-1.472,15.091,15.091,0,0,0,5.907-20.508,15.061,15.061,0,0,0-3.253-4.045,17.225,17.225,0,0,0-9.939,14.828" transform="translate(0 343.338)" fill="#fff"/>
        </g>
      </g>
      <path id="path30" d="M914.58-293.123h4.351v-25.142H914.58v25.142" transform="translate(-834.557 320.455)" fill="#fff"/>
      <path id="path32" d="M1015.489-239.422a6.2,6.2,0,0,0-5.576,3v-2.616H1006v17.871h4.189v-9.466a8.523,8.523,0,0,1,.2-1.968,3.748,3.748,0,0,1,3.877-3.047,3.4,3.4,0,0,1,3.679,3.136,11.23,11.23,0,0,1,.138,1.875v9.469h4.19v-10.575a11.1,11.1,0,0,0-.4-3.175c-.909-3.037-3.336-4.5-6.382-4.5" transform="translate(-917.964 248.502)" fill="#fff"/>
      <path id="path34" d="M1239.312-297.21a8.88,8.88,0,0,1-1.7.147h-4.816v-7.089h5.181a6.862,6.862,0,0,1,1.371.131,3.42,3.42,0,0,1,2.817,3.409A3.4,3.4,0,0,1,1239.312-297.21Zm-6.519-17.1h3.863a6.3,6.3,0,0,1,2.418.4,2.752,2.752,0,0,1,1.614,2.743,2.8,2.8,0,0,1-1.67,2.775,5.666,5.666,0,0,1-2.218.367h-4.007Zm9.784,7.758a5.684,5.684,0,0,0,2.416-4.945,6.465,6.465,0,0,0-5.011-6.424,15.033,15.033,0,0,0-3.547-.336h-7.947v25.141h8.9a11.5,11.5,0,0,0,4.037-.567,6.968,6.968,0,0,0,5.04-6.767,6.386,6.386,0,0,0-3.89-6.1" transform="translate(-1120.985 320.449)" fill="#fff"/>
      <path id="path36" d="M1669.99-235.051l-4.475,12.767-4.54-12.767h-4.539l7.1,17.871h3.867l7.083-17.871h-4.493" transform="translate(-1511.483 244.513)" fill="#fff"/>
      <path id="path38" d="M1456.141-231.508a4.786,4.786,0,0,1,4.92-4.262,4.815,4.815,0,0,1,4.984,4.262Zm4.882-7.911a9.105,9.105,0,0,0-9.04,9.442,9.143,9.143,0,0,0,9.218,9.192,8.963,8.963,0,0,0,8.442-5.864h-4.26a4.609,4.609,0,0,1-4.11,2.214,4.967,4.967,0,0,1-5.144-4.146h13.947a8.606,8.606,0,0,0,.127-1.7,9.1,9.1,0,0,0-9.179-9.142" transform="translate(-1324.895 248.499)" fill="#fff"/>
      <path id="path40" d="M421.546-297.075h-5.178V-304.3c.656-.028,1.3-.042,1.923-.035,4.709.061,7.448,1.431,7.448,3.87C425.74-298.271,423.777-297.075,421.546-297.075Zm-5.178-17.246h3.693a6.9,6.9,0,0,1,2.035.254,3.042,3.042,0,0,1,2.168,3.218,3.074,3.074,0,0,1-2.054,3.091,24.249,24.249,0,0,0-4.037-.317c-.561,0-1.179.008-1.8.028Zm-23.311,15.485,5.586-14.459,3.25,8.669A34.172,34.172,0,0,0,393.058-298.836Zm33.057-7.692a6.087,6.087,0,0,0,2.453-4.98,6.466,6.466,0,0,0-5.01-6.424,15.048,15.048,0,0,0-3.547-.336h-7.947v10.608a38.321,38.321,0,0,0-6.413,1.546l-4.961-12.155H396.7l-10.261,25.142h4.187a35.219,35.219,0,0,1,12.435-8.39l3.145,8.39h4.747l-3.974-9.737a39.259,39.259,0,0,1,5.086-1.09v10.826l2.16,0v0h7.587c5.361,0,8.237-3.145,8.237-7.338a6.574,6.574,0,0,0-3.933-6.07" transform="translate(-352.61 320.458)" fill="#fff"/>
    </g>
  </g>
</svg>
