<svg xmlns="http://www.w3.org/2000/svg" width="164.984" height="28" viewBox="0 0 164.984 28">
  <g id="Group_270" data-name="Group 270" transform="translate(-688.449 -144.682)">
    <path id="Path_585" data-name="Path 585" d="M739.239,171.45V158.386c4.754-.253,6.883,3.1,6.883,6.913,0,3.652-2.236,6.457-6.883,6.151m-4.883-17.288V175.88h4.732c7.456,0,11.885-4.62,11.885-10.674s-4.073-11.044-12.834-11.044Z" transform="translate(-19.725 -4.073)" fill="#fff"/>
    <path id="Path_586" data-name="Path 586" d="M836.277,153.884h-4.9v12.054l-13.359-12.422V175.6h4.894l0-11.325,13.363,12.2Z" transform="translate(-55.675 -3.796)" fill="#fff"/>
    <path id="Path_587" data-name="Path 587" d="M853.689,158.386h5.956V175.88H864.9V158.386h5.883v-4.224h-17.1Z" transform="translate(-71.001 -4.073)" fill="#fff"/>
    <path id="Path_588" data-name="Path 588" d="M887.038,175.88V154.162h12.8v4.13h-7.88v4.618h7.1V167.1h-7.1v4.622h7.88v4.162Z" transform="translate(-85.331 -4.073)" fill="#fff"/>
    <path id="Path_589" data-name="Path 589" d="M959.138,154.162v8.787h-8.4v-8.787h-4.9V175.88h4.9V167.1h8.4v8.783h4.893V154.162Z" transform="translate(-110.598 -4.073)" fill="#fff"/>
    <path id="Path_590" data-name="Path 590" d="M759.338,154.162l11.12,22.313,2.677-5.66-8.108-16.653Z" transform="translate(-30.46 -4.073)" fill="#fff"/>
    <path id="Path_591" data-name="Path 591" d="M792.749,152.846l-2.7,5.637,2.289,5.794h-5.072l-1.71,3.592h8.184l3.086,7.444h5.681Z" transform="translate(-41.727 -3.508)" fill="#fff"/>
    <path id="Path_592" data-name="Path 592" d="M911.337,164.989c0,7.117,5.359,11.078,11.972,11.078a9.989,9.989,0,0,0,5.143-1.31v-5.143a6.471,6.471,0,0,1-5.049,2.222,6.752,6.752,0,0,1-7.1-6.975,6.824,6.824,0,0,1,7.1-6.807,6.506,6.506,0,0,1,5.049,2.213V155.5a7.758,7.758,0,0,0-5.2-1.516c-6.61,0-11.912,4.687-11.912,11" transform="translate(-95.771 -3.998)" fill="#fff"/>
    <path id="Path_593" data-name="Path 593" d="M713.446,171.806,701,144.682l-12.554,27.124h6.141l1.781-4.537h8.907l1.781,4.537ZM697.7,163.3l3.125-7.672,3.117,7.672Z" fill="#fff"/>
  </g>
</svg>
