<svg xmlns="http://www.w3.org/2000/svg" width="43" height="48" viewBox="0 0 43 48">
  <g id="Chevron_Logo" transform="translate(-39.79 -39.808)">
    <g id="Group_507" data-name="Group 507" transform="translate(39.79 39.808)">
      <g id="Group_506" data-name="Group 506" transform="translate(0)">
        <path id="Path_4437" data-name="Path 4437" d="M46,47.995a4.652,4.652,0,0,1-1.958.355,4.012,4.012,0,0,1-4.25-4.227,4.112,4.112,0,0,1,4.43-4.314A3.6,3.6,0,0,1,46,40.162l-.3,1.687a3.117,3.117,0,0,0-1.4-.305,2.312,2.312,0,0,0-2.409,2.547A2.283,2.283,0,0,0,44.3,46.623a3.057,3.057,0,0,0,1.395-.315Z" transform="translate(-39.79 -39.808)" fill="#fff"/>
        <path id="Path_4438" data-name="Path 4438" d="M99.2,42.1a2.179,2.179,0,0,0-1.79.86h-.022V40.042l-1.83.634V48.3h1.83V44.738a1,1,0,0,1,.976-1.067c.686,0,.95.54.95,1.325v3.3h1.832V44.743C101.15,42.928,100.371,42.1,99.2,42.1Z" transform="translate(-88.516 -40.012)" fill="#fff"/>
        <path id="Path_4439" data-name="Path 4439" d="M148.337,59.716c.067.772.708,1.183,1.7,1.191a3.666,3.666,0,0,0,1.752-.441l.276,1.424a5.1,5.1,0,0,1-2.3.485,3.055,3.055,0,0,1-3.346-3.317,2.979,2.979,0,0,1,3.137-3.194c1.939,0,2.808,1.428,2.808,3.216a5.609,5.609,0,0,1-.044.636h-3.982m2.2-1.3a1.117,1.117,0,0,0-1.066-1.233,1.208,1.208,0,0,0-1.145,1.233Z" transform="translate(-132.946 -53.834)" fill="#fff"/>
        <path id="Path_4440" data-name="Path 4440" d="M196.485,63.881l-2.022-6h2.019l1.1,4.246h.037l1.1-4.246h2.02l-2.022,6Z" transform="translate(-174.92 -55.594)" fill="#fff"/>
        <path id="Path_4441" data-name="Path 4441" d="M247.733,58.867c0-.883-.028-1.459-.065-1.974h1.724l.052,1.116h.046a1.629,1.629,0,0,1,1.476-1.252,2.174,2.174,0,0,1,.612.037v1.755a3.075,3.075,0,0,0-.735-.05,1.391,1.391,0,0,0-1.25,1.167,2.146,2.146,0,0,0-.036.417V62.9h-1.823V58.867Z" transform="translate(-221.402 -54.608)" fill="#fff"/>
        <path id="Path_4442" data-name="Path 4442" d="M286.535,59.118a3.11,3.11,0,1,1-3.106-3.256,2.971,2.971,0,0,1,3.106,3.256m-1.9,0c0-.977-.336-1.827-1.209-1.827s-1.208.85-1.208,1.827.334,1.827,1.208,1.827S284.638,60.1,284.638,59.118Z" transform="translate(-249.934 -53.833)" fill="#fff"/>
        <path id="Path_4443" data-name="Path 4443" d="M335.45,58.463c0-.749-.027-1.389-.066-1.914h1.724l.039.84h.037a2.217,2.217,0,0,1,1.856-1.032c1.207,0,1.994.824,1.994,2.591v3.6h-1.828V59.224c0-.772-.265-1.3-.927-1.3a.992.992,0,0,0-.939.7,1.514,1.514,0,0,0-.061.467v3.463H335.45V58.463Z" transform="translate(-298.035 -54.265)" fill="#fff"/>
      </g>
      <path id="Path_4444" data-name="Path 4444" d="M40.307,132.3V117.987l21.481,7.159Z" transform="translate(-40.241 -108.103)" fill="#fff"/>
      <path id="Path_4445" data-name="Path 4445" d="M40.35,132.316l21.464,7.158,21.463-7.158V118l-21.463,7.157Z" transform="translate(-40.279 -108.115)" fill="#fff"/>
      <path id="Path_4446" data-name="Path 4446" d="M40.3,263.9l0-14.322,21.479,7.158Z" transform="translate(-40.238 -223.061)" fill="#fff"/>
      <path id="Path_4447" data-name="Path 4447" d="M83.266,249.582,61.8,256.738,40.336,263.9l21.464,7.16L83.266,263.9Z" transform="translate(-40.267 -223.061)" fill="#fff"/>
    </g>
  </g>
</svg>
