<svg xmlns="http://www.w3.org/2000/svg" width="201" height="30" viewBox="0 0 201 30">
  <g id="mcdermott-logo-vector" transform="translate(-21.2 -276.2)">
    <path id="Path_4432" data-name="Path 4432" d="M218.582,316l-.3.3v12.6H25.119V316.3l-.3-.3H21.5l-.3.3v16.056l.3.3H221.9l.3-.3V316.3l-.3-.3Z" transform="translate(0 -26.459)" fill="#f6f6f6"/>
    <g id="Group_504" data-name="Group 504" transform="translate(30.384 276.2)">
      <path id="Path_4433" data-name="Path 4433" d="M192.142,297.887a10.827,10.827,0,1,1,10.787-10.827,10.391,10.391,0,0,1-10.787,10.827m0-18.235c-3.852,0-6.465,3.084-6.465,7.408s2.613,7.408,6.465,7.408,6.465-3.084,6.465-7.408-2.613-7.408-6.465-7.408M70.81,297.083V276.9l-.3-.3H65.282l-.335.235-4.991,12.7h-.5l-4.958-12.7-.368-.235H48.9l-.3.3v20.179l.3.3h3.316l.3-.3V282.77h.3l5.661,14.38.368.235h1.708l.368-.235,5.661-14.38h.3v14.313l.3.3h3.316Zm107.866,0V276.9l-.3-.3h-5.226l-.335.235-5.025,12.7h-.5l-4.958-12.7-.368-.235h-5.226l-.3.3v20.179l.3.3h3.316l.3-.3V282.77h.3l5.661,14.38.368.235h1.708l.335-.235,5.661-14.38h.3v14.313l.3.3h3.316Zm-31.757-7.777v-.4c2.948-.469,5.728-2.145,5.728-5.866a6.116,6.116,0,0,0-1.909-4.525,7.555,7.555,0,0,0-5.561-1.944h-9.011l-.3.3v20.179l.3.3h3.618l.3-.3v-8.011h1.407l7.135,8.078.536.235h4.388v-.6Zm-6.8-3.52v-5.8h4.489c2.177,0,3.45.939,3.45,2.883,0,1.877-1.206,2.916-3.517,2.916h-4.422Zm-7.772,8.413-.3-.3H121.192v-5.263h8.643l.3-.3v-2.95l-.3-.3h-8.643v-4.927h10.787l.3-.3V276.9l-.3-.3H117.306l-.3.3v20.179l.3.3h14.773l.3-.3V294.2Zm86.46-17.6H203.2l-.3.3v2.95l.3.3h5.695v16.961l.3.3h3.618l.3-.3V280.155h5.695l.3-.3V276.9Zm17.989,0h-15.61l-.3.3v2.95l.3.3h5.695v16.961l.3.3H230.8l.3-.3V280.155H236.8l.3-.3V276.9Zm-123.409,6.369a9.829,9.829,0,0,0-1.842-3.352,8.506,8.506,0,0,0-2.881-2.212,8.7,8.7,0,0,0-3.785-.8H96.57l-.3.3v20.179l.3.3h7.973a10.145,10.145,0,0,0,3.484-.536,8.334,8.334,0,0,0,2.68-1.475,8.533,8.533,0,0,0,2.479-3.52,12.272,12.272,0,0,0,.837-4.659,14.3,14.3,0,0,0-.636-4.223m-4.924,9.084q-1.256,1.71-4.221,1.71h-3.752V280.189h3.852a5.145,5.145,0,0,1,2.345.5,4.336,4.336,0,0,1,1.675,1.441,6.074,6.074,0,0,1,1,2.212,10.9,10.9,0,0,1,.335,2.849,7.852,7.852,0,0,1-1.239,4.86m-15.376-2.078H89.4l-.268.268a4.786,4.786,0,0,1-5.025,4.19c-3.919,0-6.231-3.184-6.231-7.408s2.311-7.408,6.231-7.408a4.889,4.889,0,0,1,4.991,4.156h0l.3.3h3.685l.3-.3c-.7-4.626-4.12-7.575-9.279-7.575-6.331,0-10.519,4.525-10.519,10.827,0,6.335,4.221,10.827,10.519,10.827,5.159,0,8.643-3.117,9.279-7.575Z" transform="translate(-48.6 -276.2)" fill="#f6f6f6"/>
    </g>
  </g>
</svg>
