<svg xmlns="http://www.w3.org/2000/svg" width="187.5" height="45" viewBox="0 0 187.5 45">
  <g id="Group_505" data-name="Group 505" transform="translate(9458.85 424.5)">
    <path id="Subtraction_1" data-name="Subtraction 1" d="M40.839,44a48.3,48.3,0,0,1-6.937-.528A61.028,61.028,0,0,1,26.843,42a67.191,67.191,0,0,1-6.858-2.256,63,63,0,0,1-6.334-2.872,49.226,49.226,0,0,1-5.488-3.323,31.434,31.434,0,0,1-4.32-3.608A16.4,16.4,0,0,1,1.015,26.21,9.387,9.387,0,0,1,.26,24.352,6.819,6.819,0,0,1,0,22.527a6.966,6.966,0,0,1,.076-1.042,5.826,5.826,0,0,1,.22-.933,5.212,5.212,0,0,1,.824-1.562,5.972,5.972,0,0,1,1.256-1.2A8.537,8.537,0,0,1,3.969,16.9,13.141,13.141,0,0,1,5.8,16.279c.6-.16,1.269-.3,1.979-.412a37.434,37.434,0,0,1,4.01-.388,5.612,5.612,0,0,0-.46,2.238,7.2,7.2,0,0,0,2.179,4.506,23.392,23.392,0,0,0,5.865,4.518,35.524,35.524,0,0,0,4,1.936,39.363,39.363,0,0,0,4.545,1.545,38.754,38.754,0,0,0,10.219,1.394,20.99,20.99,0,0,0,4.407-.437,12.543,12.543,0,0,0,3.53-1.283,5.585,5.585,0,0,0,3.2-4.933h0v-.01a15.427,15.427,0,0,0-.528-3.084,21.48,21.48,0,0,1,4.028,2.274,16.171,16.171,0,0,1,2.954,2.724,11.409,11.409,0,0,1,1.817,2.959,7.865,7.865,0,0,1,.619,2.978,10.193,10.193,0,0,1-.177,1.9,9.417,9.417,0,0,1-3.3,5.552A12.4,12.4,0,0,1,52.4,41.759a17.027,17.027,0,0,1-3.017,1.186,24.971,24.971,0,0,1-3.827.776A37.583,37.583,0,0,1,40.839,44ZM38.8,25.36a36.984,36.984,0,0,1-10.326-1.488,38.42,38.42,0,0,1-4.418-1.584,36.842,36.842,0,0,1-3.807-1.9,31.487,31.487,0,0,1-3.11-2.032,21.857,21.857,0,0,1-2.328-1.98,10.478,10.478,0,0,1-1.46-1.745,4.12,4.12,0,0,1-.377-.727,1.716,1.716,0,0,1-.128-.6,1.888,1.888,0,0,1,.068-.593c.324-1.037,2.873-8.227,2.9-8.3a10.935,10.935,0,0,1,.747-1.681,5.313,5.313,0,0,1,.883-1.193A3.156,3.156,0,0,1,19.761.593a3.443,3.443,0,0,1,.688.071,4.736,4.736,0,0,1,.663.188,12.811,12.811,0,0,1,1.29.575,6.45,6.45,0,0,0,2.826.877,3.411,3.411,0,0,0,2.408-1.225,2.942,2.942,0,0,1,2-1.079A9.118,9.118,0,0,1,31.8.415c.871.244,1.946.6,3.11,1.026,1.085.4,2.229.851,3.308,1.31s2.021.893,2.753,1.267A11.7,11.7,0,0,1,44.61,6.455a4.229,4.229,0,0,1,.733,1.194,9.815,9.815,0,0,1,.437,1.44l2.276,9.888.005.021,0,.011a4.173,4.173,0,0,1,.086.947v.016h0v.007h0v.007h0q0,.017,0,.033a4.665,4.665,0,0,1-.245,1.534,4.029,4.029,0,0,1-.679,1.217,4.838,4.838,0,0,1-1.028.935,7,7,0,0,1-1.292.687,12.515,12.515,0,0,1-3.036.769A22.726,22.726,0,0,1,38.8,25.36Z" transform="translate(-9458.35 -424)" fill="#fff" stroke="rgba(0,0,0,0)" stroke-miterlimit="10" stroke-width="1"/>
    <path id="Path_4436" data-name="Path 4436" d="M529.792-615.894c0,3.631,2.186,5.4,6.17,5.4a15.97,15.97,0,0,0,3.631-.513v-4.21a7.538,7.538,0,0,1-2.344.353c-1.64,0-2.25-.514-2.25-2.055v-6.459h4.756v-4.339H535v-5.494l-5.207,1.123v4.371h-3.437v4.339h3.437Zm-16.176.1c0-1.123,1.125-1.67,2.826-1.67a13.08,13.08,0,0,1,3.087.385v2.185a6.57,6.57,0,0,1-3.247.8c-1.669,0-2.666-.642-2.666-1.7m1.588,5.366a7.95,7.95,0,0,0,4.692-1.317v1.029h5.14v-10.893c0-4.146-2.8-6.428-7.454-6.428a18.919,18.919,0,0,0-7.937,1.865l1.864,3.823a13.884,13.884,0,0,1,5.14-1.349c2.154,0,3.247.835,3.247,2.538v.835a15.158,15.158,0,0,0-3.857-.481c-4.37,0-7.005,1.831-7.005,5.109,0,2.989,2.378,5.269,6.17,5.269m-28.246-.288h5.527v-8.8h9.254v8.8h5.527v-22.494h-5.527v8.644h-9.254v-8.644h-5.527ZM465.9-619.237a4.306,4.306,0,0,1,4.468-4.305,5.272,5.272,0,0,1,3.6,1.318v5.944a5,5,0,0,1-3.6,1.35,4.324,4.324,0,0,1-4.468-4.306m8.131,8.516h5.141v-23.62l-5.205,1.126v6.394a8.644,8.644,0,0,0-4.338-1.125,8.684,8.684,0,0,0-8.838,8.708,8.634,8.634,0,0,0,8.677,8.74,7.661,7.661,0,0,0,4.563-1.478ZM450.44-623.767a3.759,3.759,0,0,1,3.567,2.7h-7.1a3.542,3.542,0,0,1,3.536-2.7m-8.772,4.563a8.926,8.926,0,0,0,9.255,8.8,10.2,10.2,0,0,0,7.1-2.572l-3.438-3.053a4.609,4.609,0,0,1-3.406,1.286,4.395,4.395,0,0,1-4.179-2.7h12.116v-1.284c0-5.4-3.632-9.287-8.58-9.287a8.732,8.732,0,0,0-8.869,8.805m-8.965-9.288a2.578,2.578,0,0,1,2.859,2.539,2.577,2.577,0,0,1-2.859,2.538H427.24v-5.077Zm-10.99,17.771h5.527v-8.194h4.209l4.243,8.194h6.168l-4.948-9a6.809,6.809,0,0,0,4.243-6.331c0-4.048-3.183-7.165-7.938-7.165h-11.5Z" transform="translate(-9811.104 220.098)" fill="#fff"/>
  </g>
</svg>
