<svg xmlns="http://www.w3.org/2000/svg" width="145" height="40" viewBox="0 0 145 40">
  <g id="tech-mahindra-new-logo" transform="translate(-3.025 -2.912)">
    <path id="Path_4429" data-name="Path 4429" d="M20.588,2.913H3.026V7.027h6.4v13.5h4.751V7.027h6.412Z" transform="translate(-0.001)" fill="#fff" fill-rule="evenodd"/>
    <g id="Group_503" data-name="Group 503" transform="translate(3.025 3.132)">
      <g id="Group_502" data-name="Group 502" transform="translate(0 22.144)">
        <path id="Path_4430" data-name="Path 4430" d="M118.474-166.429a2.789,2.789,0,0,0-2.8-2.78h-6.191a1.227,1.227,0,0,0-1.1.7c-.016.015-1.846,2.653-1.846,2.653H112.5a1.314,1.314,0,0,1,1.258,1.318v8.246h4.712v-10.137Zm-16.649-7.483h4.711v17.62h-4.711Zm40.937,4.7H129.377v12.917h4.743v-9.564h5.38a1.331,1.331,0,0,1,1.338,1.318v8.246h4.727v-10.137a2.79,2.79,0,0,0-2.8-2.78m-67.1-4.7H53.025v17.62h4.7v-13.5h5.03a.869.869,0,0,1,.859.874v12.631h4.711v-12.631a.87.87,0,0,1,.256-.619.874.874,0,0,1,.62-.255H72.9a1.3,1.3,0,0,1,1.305,1.287v12.218h4.7v-14.379a3.231,3.231,0,0,0-.949-2.294,3.243,3.243,0,0,0-2.3-.947m45.92,8.9v8.723h4.712v-12.773s-2.181,1.35-3.725,2.319a2.082,2.082,0,0,0-.987,1.732m0-8.913h4.712v3.256l-4.712,3.114Zm49.182,4.718a1.884,1.884,0,0,0-1.942,1.875v11.042h4.743v-8.23a1.294,1.294,0,0,1,1.273-1.35h3.517a1.605,1.605,0,0,0,1.21-.731c.016-.016,1.846-2.605,1.846-2.605Zm-9.773-4.7v14.395h-6.828a.818.818,0,0,1-.812-.763v-4.258h.017a1.314,1.314,0,0,1,.386-.933,1.318,1.318,0,0,1,.935-.385h3.453a1.592,1.592,0,0,0,1.258-.651l1.592-2.7h-9.581a2.785,2.785,0,0,0-2.786,2.78v7.817a2.273,2.273,0,0,0,2.292,2.32h14.8v-17.62Zm34.252,4.7H184.352a1.649,1.649,0,0,0-1.336.668l-1.831,2.685h10.966a1.323,1.323,0,0,1,1.241,1.318l-.016,5.132h-8.212v-1.478a.53.53,0,0,1,.525-.524h5.746v-1.906a.652.652,0,0,0-.685-.715h-7.959a1.747,1.747,0,0,0-1.766,1.748v4.686a.145.145,0,0,0,.016.08,1.458,1.458,0,0,0,1.448,1.223h15.535v-10.137a2.77,2.77,0,0,0-.814-1.968,2.781,2.781,0,0,0-1.972-.812m-99.128,0H85.224a1.62,1.62,0,0,0-1.321.668l-1.847,2.685H93.023a1.323,1.323,0,0,1,1.242,1.318v5.132H86.036v-1.478a.53.53,0,0,1,.525-.524h5.746v-1.906a.652.652,0,0,0-.684-.715H83.664a1.747,1.747,0,0,0-1.766,1.748v4.686a.147.147,0,0,0,.016.08,1.457,1.457,0,0,0,1.448,1.223H98.9v-10.137a2.77,2.77,0,0,0-.814-1.968,2.781,2.781,0,0,0-1.972-.812" transform="translate(-53.025 173.927)" fill="#fff" fill-rule="evenodd"/>
      </g>
      <path id="Path_4431" data-name="Path 4431" d="M189.07-260.338a2.787,2.787,0,0,0-2.8-2.78h-6.342a1.224,1.224,0,0,0-1.1.7c-.016.016-1.843,2.653-1.843,2.653h6.12a1.314,1.314,0,0,1,1.255,1.319v8.246h4.7v-10.137Zm-16.781-7.483h4.7V-250.2h-4.7Zm-13.052,12.949h.016a1.319,1.319,0,0,0,.389.935,1.319,1.319,0,0,0,.937.384h8.787v3.353H157.289a2.79,2.79,0,0,1-2.794-2.78v-7.576a2.791,2.791,0,0,1,2.794-2.781h12.048L168.6-261.5a1.825,1.825,0,0,1-.595.97,1.291,1.291,0,0,1-.8.3h-6.624a1.319,1.319,0,0,0-.937.384,1.319,1.319,0,0,0-.388.935h-.016Zm-21.1,4.509H148.2a1.619,1.619,0,0,0,1.318-.667l1.843-2.685H141.217a1.322,1.322,0,0,1-1.239-1.319v-5.132h7.408v1.478a.529.529,0,0,1-.525.524h-4.929v1.907a.651.651,0,0,0,.683.715h7.137a1.746,1.746,0,0,0,1.764-1.747v-4.687a.142.142,0,0,0-.016-.079,1.455,1.455,0,0,0-1.445-1.223h-14.7v10.136a2.774,2.774,0,0,0,.812,1.968,2.774,2.774,0,0,0,1.968.813" transform="translate(-115.938 267.821)" fill="#fff" fill-rule="evenodd"/>
    </g>
  </g>
</svg>
