<svg xmlns="http://www.w3.org/2000/svg" width="76" height="48" viewBox="0 0 76 48">
  <g id="Group_269" data-name="Group 269" transform="translate(-3350.295 -706.619)">
    <path id="Path_580" data-name="Path 580" d="M3373,1557.025c0-1.5.546-3.286,2.34-3.286s2.361,1.791,2.361,3.286-.568,3.262-2.361,3.262-2.34-1.767-2.34-3.262Zm-3.874,0a6.224,6.224,0,1,0,6.213-6.234,6.009,6.009,0,0,0-6.213,6.234Zm21.168-3.286c1.707,0,2.3,1.655,2.3,3.15,0,1.608-.592,3.4-2.322,3.4-1.752,0-2.345-1.337-2.345-3.4C3387.929,1554.465,3389.25,1553.739,3390.3,1553.739Zm-6.1,13.1h3.875v-5.21h.045a3.958,3.958,0,0,0,3.368,1.61c3.348,0,4.99-2.9,4.99-5.962,0-3.308-1.573-6.483-5.286-6.483a3.78,3.78,0,0,0-3.255,1.7h-.045v-1.361h-3.692v15.7Zm18.471-7.325c0-.932.729-1.3,1.595-1.5a10.92,10.92,0,0,0,2.393-.637c.092,2.436-.523,3.483-2.37,3.483-.866,0-1.617-.387-1.617-1.344Zm.227-4.779a1.726,1.726,0,0,1,1.937-1.445c.8,0,1.869.333,1.869,1.2,0,.723-.365.951-1.025,1.087-2.689.546-6.882.25-6.882,4.1,0,2.43,1.776,3.565,4.033,3.565a5.356,5.356,0,0,0,3.9-1.452,4.58,4.58,0,0,0,.227,1.111h3.892a6.818,6.818,0,0,1-.456-3.02v-5.166c0-3.307-2.708-3.918-5.51-3.918a7.841,7.841,0,0,0-3.76.816,3.605,3.605,0,0,0-1.847,3.124Zm10.962-8.022h3.873v8.345l3.532-3.923h4.49l-4.329,4.445,4.876,7.319h-4.673l-2.893-4.734-1,.974v3.759h-3.873v-16.186Zm-47.644,0-5.723,12.038h-.046l-5.723-12.038h-4.421l7.8,16.186h4.74l7.8-16.186Z" transform="translate(0 -812.217)" fill="#fff" fill-rule="evenodd"/>
    <g id="Group_267" data-name="Group 267" transform="translate(3359.993 706.619)">
      <path id="Path_581" data-name="Path 581" d="M3659.83,724.483l9.135-.006,1.345-1.689h6.251l.506-1.055-5.933,0,5.045-6.682h4.093l4.048-8.436h-32.391l-9.334,19.452h16.475Z" transform="translate(-3642.594 -706.619)" fill="#fff" fill-rule="evenodd"/>
      <path id="Path_582" data-name="Path 582" d="M4139.607,1292.77h15.9l0,0Z" transform="translate(-4123.117 -1273.318)" fill="#fff" fill-rule="evenodd"/>
    </g>
    <g id="Group_268" data-name="Group 268" transform="translate(3372.792 715.054)">
      <path id="Path_583" data-name="Path 583" d="M4171.224,970.288l1.345-1.689h15.452l.345,1.683,8.195.012,4.524-9.429h-14.5l1.306,6.676-14.5.006,5.045-6.682h-11.824l-4.524,9.429Z" transform="translate(-4157.28 -960.865)" fill="#fff" fill-rule="evenodd"/>
      <path id="Path_584" data-name="Path 584" d="M4055.657,1260.069l-34.474.009.54-1.126-4.588,9.562h34.47l4.155-8.658Z" transform="translate(-4017.135 -1249.062)" fill="#fff" fill-rule="evenodd"/>
    </g>
  </g>
</svg>
