<svg id="Group_410" data-name="Group 410" xmlns="http://www.w3.org/2000/svg" width="32" height="36" viewBox="0 0 32 36">
  <path id="Path_884" data-name="Path 884" d="M31.991,28.329a3.081,3.081,0,0,1-1.063,2.224l-5.613,4.489A3.955,3.955,0,0,1,22.723,36H.84A.851.851,0,0,1,0,35.111a.893.893,0,0,1,.89-.891H22.723A2.385,2.385,0,0,0,24.21,33.7l5.6-4.483A1.18,1.18,0,0,0,29.86,27.4a1.136,1.136,0,0,0-.765-.291,1.327,1.327,0,0,0-.813.291L24.854,30.14a2.4,2.4,0,0,1-1.481.515H13.3a.89.89,0,1,1,0-1.779h4.895a1.334,1.334,0,1,0,0-2.669H10.079a3.6,3.6,0,0,0-2.134.709L5.338,28.879.84,28.83A.851.851,0,0,1,0,27.94a.861.861,0,0,1,.89-.89H4.742l2.142-1.6a5.558,5.558,0,0,1,3.2-1.022h8.033a3.2,3.2,0,0,1,3.212,2.654,3.056,3.056,0,0,1-.264,1.793h2.315a.6.6,0,0,0,.378-.133l3.418-2.737a3.081,3.081,0,0,1,1.926-.674,2.871,2.871,0,0,1,2.894,3Z" fill="#fff"/>
  <path id="Path_885" data-name="Path 885" d="M5.388,23.449a8.343,8.343,0,0,1,1.066-.641,13.1,13.1,0,0,1-1.316-2.183h4.907c.09.448.195.88.305,1.305H12.3c-.123-.427-.239-.861-.339-1.305H21.986a17.685,17.685,0,0,1-.608,2.309,5.7,5.7,0,0,1,1.472,1.45,21.494,21.494,0,0,0,1.1-3.759h4.9a13.056,13.056,0,0,1-1.577,2.514,5.618,5.618,0,0,1,1.815-.306,5.489,5.489,0,0,1,.642.059A14.994,14.994,0,1,0,2,15a14.921,14.921,0,0,0,2.887,8.823Zm16.985-4.7H11.627a28.028,28.028,0,0,1,0-7.5H22.373A27.414,27.414,0,0,1,22.625,15,27.414,27.414,0,0,1,22.373,18.75ZM30.125,15a13.025,13.025,0,0,1-.545,3.75H24.213A22.319,22.319,0,0,0,24.5,15a22.319,22.319,0,0,0-.287-3.75H29.58A13.025,13.025,0,0,1,30.125,15ZM28.859,9.375h-4.9a17.359,17.359,0,0,0-2.766-6.817A13.144,13.144,0,0,1,28.859,9.375ZM17,1.875c.979,0,2.367.842,3.627,3.357a15.72,15.72,0,0,1,1.359,4.143H11.961a17.886,17.886,0,0,1,1.412-4.143C14.633,2.717,16.021,1.875,17,1.875Zm-4.189.683a17.359,17.359,0,0,0-2.766,6.817H5.138A13.167,13.167,0,0,1,12.811,2.558ZM4.419,11.25H9.734a30.165,30.165,0,0,0,0,7.5H4.419a13.2,13.2,0,0,1,0-7.5Z" fill="#fff"/>
</svg>
